<?xml version="1.0" encoding="UTF-8"?>
<svg xmlns="http://www.w3.org/2000/svg" height="522.3999998927115" width="630.7783203125" viewBox="0 0 630.7783203125 522.3999998927115">
<g transform="translate(78.5,252.7999999642372)">
<path stroke-width="1" fill="none" stroke="rgba(102,102,102,0.8)" d="M76 0 L76 -197 Q76 -202 81 -202 L107 -202 "></path>
<path stroke-width="1" fill="none" stroke="rgba(102,102,102,0.8)" d="M76 0 L76 -109 Q76 -114 81 -114 L107 -114 "></path>
<path stroke-width="1" fill="none" stroke="rgba(102,102,102,0.8)" d="M76 0 L76 11 Q76 16 81 16 L107 16 "></path>
<path stroke-width="1" fill="none" stroke="rgba(102,102,102,0.8)" d="M76 0 L76 113 Q76 118 81 118 L107 118 "></path>
<path stroke-width="1" fill="none" stroke="rgba(102,102,102,0.8)" d="M76 0 L76 200 Q76 205 81 205 L107 205 "></path>
<rect rx="5" ry="5" x="-68" y="-14" height="29" width="137" stroke-width="1" fill="rgba(255,255,255,1)" stroke="none"></rect>
<rect rx="5" ry="5" x="-68" y="-14" height="29" width="137" stroke-width="1" fill="none" stroke="rgba(68,68,68,0.8)"></rect>
<text font-size="15" x="-53" y="6" stroke-width="2" fill="rgba(68,68,68,1)" stroke="none">中华人民共和国</text>
<ellipse cx="72" cy="0" rx="3" ry="3" stroke-width="2" fill="rgba(255,255,255,1)" stroke="none"></ellipse>
<ellipse cx="72" cy="0" rx="3" ry="3" stroke-width="1" fill="none" stroke="rgba(68,68,68,1)"></ellipse>
<rect x="-52" y="14" height="16" width="105" stroke-width="1" fill="rgba(255,193,7,1)" stroke="none"></rect>
<rect x="-52" y="14" height="16" width="105" stroke-width="1" fill="none" stroke="rgba(68,68,68,0.8)"></rect>
<text font-size="10" x="-17" y="26" stroke-width="1" fill="rgba(68,68,68,1)" stroke="none">百科词条</text>
<path stroke-width="1" fill="none" stroke="rgba(102,102,102,0.8)" d="M177 -202 L177 -223 Q177 -228 182 -228 L208 -228 "></path>
<path stroke-width="1" fill="none" stroke="rgba(102,102,102,0.8)" d="M177 -202 L177 -200 Q177 -195 182 -195 L208 -195 "></path>
<path stroke-width="1" fill="none" stroke="rgba(102,102,102,0.8)" d="M177 -202 L177 -167 Q177 -162 182 -162 L208 -162 "></path>
<rect rx="5" ry="5" x="107" y="-216" height="29" width="62" stroke-width="1" fill="rgba(255,255,255,1)" stroke="none"></rect>
<rect rx="5" ry="5" x="107" y="-216" height="29" width="62" stroke-width="1" fill="none" stroke="rgba(68,68,68,0.8)"></rect>
<text font-size="15" x="119" y="-195" stroke-width="2" fill="rgba(68,68,68,1)" stroke="none">北京</text>
<ellipse cx="173" cy="-202" rx="3" ry="3" stroke-width="2" fill="rgba(255,255,255,1)" stroke="none"></ellipse>
<ellipse cx="173" cy="-202" rx="3" ry="3" stroke-width="1" fill="none" stroke="rgba(68,68,68,1)"></ellipse>
<rect x="123" y="-187" height="16" width="30" stroke-width="1" fill="rgba(255,193,7,1)" stroke="none"></rect>
<rect x="123" y="-187" height="16" width="30" stroke-width="1" fill="none" stroke="rgba(68,68,68,0.8)"></rect>
<text font-size="10" x="129" y="-175" stroke-width="1" fill="rgba(68,68,68,1)" stroke="none">首都</text>
<rect rx="5" ry="5" x="208" y="-242" height="28" width="62" stroke-width="1" fill="rgba(255,255,255,1)" stroke="none"></rect>
<rect rx="5" ry="5" x="208" y="-242" height="28" width="62" stroke-width="1" fill="none" stroke="rgba(68,68,68,0.8)"></rect>
<text font-size="15" x="220" y="-221" stroke-width="2" fill="rgba(68,68,68,1)" stroke="none">故宫</text>
<rect rx="5" ry="5" x="208" y="-209" height="28" width="77" stroke-width="1" fill="rgba(255,255,255,1)" stroke="none"></rect>
<rect rx="5" ry="5" x="208" y="-209" height="28" width="77" stroke-width="1" fill="none" stroke="rgba(68,68,68,0.8)"></rect>
<text font-size="15" x="220" y="-188" stroke-width="2" fill="rgba(68,68,68,1)" stroke="none">天安门</text>
<rect rx="5" ry="5" x="208" y="-176" height="28" width="62" stroke-width="1" fill="rgba(255,255,255,1)" stroke="none"></rect>
<rect rx="5" ry="5" x="208" y="-176" height="28" width="62" stroke-width="1" fill="none" stroke="rgba(68,68,68,0.8)"></rect>
<text font-size="15" x="220" y="-155" stroke-width="2" fill="rgba(68,68,68,1)" stroke="none">鸟巢</text>
<path stroke-width="1" fill="none" stroke="rgba(102,102,102,0.8)" d="M248 -114 L248 -119 Q248 -124 253 -124 L279 -124 "></path>
<path stroke-width="1" fill="none" stroke="rgba(102,102,102,0.8)" d="M248 -114 L248 -96 Q248 -91 253 -91 L279 -91 "></path>
<rect rx="5" ry="5" x="107" y="-128" height="29" width="133" stroke-width="1" fill="rgba(255,255,255,1)" stroke="none"></rect>
<rect rx="5" ry="5" x="107" y="-128" height="29" width="133" stroke-width="1" fill="none" stroke="rgba(68,68,68,0.8)"></rect>
<text font-size="15" x="122" y="-107" stroke-width="2" fill="rgba(68,68,68,1)" stroke="none">960万平方公里</text>
<ellipse cx="244" cy="-114" rx="3" ry="3" stroke-width="2" fill="rgba(255,255,255,1)" stroke="none"></ellipse>
<ellipse cx="244" cy="-114" rx="3" ry="3" stroke-width="1" fill="none" stroke="rgba(68,68,68,1)"></ellipse>
<rect x="123" y="-99" height="16" width="101" stroke-width="1" fill="rgba(255,193,7,1)" stroke="none"></rect>
<rect x="123" y="-99" height="16" width="101" stroke-width="1" fill="none" stroke="rgba(68,68,68,0.8)"></rect>
<text font-size="10" x="165" y="-87" stroke-width="1" fill="rgba(68,68,68,1)" stroke="none">面积</text>
<rect rx="5" ry="5" x="279" y="-138" height="28" width="193" stroke-width="1" fill="rgba(255,255,255,1)" stroke="none"></rect>
<rect rx="5" ry="5" x="279" y="-138" height="28" width="193" stroke-width="1" fill="none" stroke="rgba(68,68,68,0.8)"></rect>
<text font-size="15" x="297" y="-117" stroke-width="2" fill="rgba(68,68,68,1)" stroke="none">陆地面积960万平方公里</text>
<rect rx="5" ry="5" x="279" y="-105" height="28" width="178" stroke-width="1" fill="rgba(255,255,255,1)" stroke="none"></rect>
<rect rx="5" ry="5" x="279" y="-105" height="28" width="178" stroke-width="1" fill="none" stroke="rgba(68,68,68,0.8)"></rect>
<text font-size="15" x="297" y="-84" stroke-width="2" fill="rgba(68,68,68,1)" stroke="none">领海约470万平方公里</text>
<path stroke-width="1" fill="none" stroke="rgba(102,102,102,0.8)" d="M207 16 L207 -48 Q207 -53 212 -53 L238 -53 "></path>
<path stroke-width="1" fill="none" stroke="rgba(102,102,102,0.8)" d="M207 16 L207 -15 Q207 -20 212 -20 L238 -20 "></path>
<path stroke-width="1" fill="none" stroke="rgba(102,102,102,0.8)" d="M207 16 L207 25 Q207 30 212 30 L238 30 "></path>
<path stroke-width="1" fill="none" stroke="rgba(102,102,102,0.8)" d="M207 16 L207 58 Q207 63 212 63 L238 63 "></path>
<rect rx="5" ry="5" x="107" y="2" height="28" width="92" stroke-width="1" fill="rgba(255,255,255,1)" stroke="none"></rect>
<rect rx="5" ry="5" x="107" y="2" height="28" width="92" stroke-width="1" fill="none" stroke="rgba(68,68,68,0.8)"></rect>
<text font-size="15" x="120" y="23" stroke-width="2" fill="rgba(68,68,68,1)" stroke="none">主要城市</text>
<ellipse cx="203" cy="16" rx="3" ry="3" stroke-width="2" fill="rgba(255,255,255,1)" stroke="none"></ellipse>
<ellipse cx="203" cy="16" rx="3" ry="3" stroke-width="1" fill="none" stroke="rgba(68,68,68,1)"></ellipse>
<rect rx="5" ry="5" x="238" y="-67" height="28" width="62" stroke-width="1" fill="rgba(255,255,255,1)" stroke="none"></rect>
<rect rx="5" ry="5" x="238" y="-67" height="28" width="62" stroke-width="1" fill="none" stroke="rgba(68,68,68,0.8)"></rect>
<text font-size="15" x="250" y="-46" stroke-width="2" fill="rgba(68,68,68,1)" stroke="none">天津</text>
<rect rx="5" ry="5" x="238" y="-34" height="29" width="62" stroke-width="1" fill="rgba(255,255,255,1)" stroke="none"></rect>
<rect rx="5" ry="5" x="238" y="-34" height="29" width="62" stroke-width="1" fill="none" stroke="rgba(68,68,68,0.8)"></rect>
<text font-size="15" x="250" y="-13" stroke-width="2" fill="rgba(68,68,68,1)" stroke="none">武汉</text>
<rect x="254" y="-5" height="16" width="30" stroke-width="1" fill="rgba(255,193,7,1)" stroke="none"></rect>
<rect x="254" y="-5" height="16" width="30" stroke-width="1" fill="none" stroke="rgba(68,68,68,0.8)"></rect>
<text font-size="10" x="260" y="6" stroke-width="1" fill="rgba(68,68,68,1)" stroke="none">江城</text>
<rect rx="5" ry="5" x="238" y="16" height="28" width="62" stroke-width="1" fill="rgba(255,255,255,1)" stroke="none"></rect>
<rect rx="5" ry="5" x="238" y="16" height="28" width="62" stroke-width="1" fill="none" stroke="rgba(68,68,68,0.8)"></rect>
<text font-size="15" x="250" y="37" stroke-width="2" fill="rgba(68,68,68,1)" stroke="none">成都</text>
<rect rx="5" ry="5" x="238" y="49" height="29" width="62" stroke-width="1" fill="rgba(255,255,255,1)" stroke="none"></rect>
<rect rx="5" ry="5" x="238" y="49" height="29" width="62" stroke-width="1" fill="none" stroke="rgba(68,68,68,0.8)"></rect>
<text font-size="15" x="250" y="70" stroke-width="2" fill="rgba(68,68,68,1)" stroke="none">广州</text>
<rect x="254" y="78" height="16" width="30" stroke-width="1" fill="rgba(255,193,7,1)" stroke="none"></rect>
<rect x="254" y="78" height="16" width="30" stroke-width="1" fill="none" stroke="rgba(68,68,68,0.8)"></rect>
<text font-size="10" x="260" y="90" stroke-width="1" fill="rgba(68,68,68,1)" stroke="none">花城</text>
<rect rx="5" ry="5" x="107" y="104" height="29" width="259" stroke-width="1" fill="rgba(255,255,255,1)" stroke="none"></rect>
<rect rx="5" ry="5" x="107" y="104" height="29" width="259" stroke-width="1" fill="none" stroke="rgba(68,68,68,0.8)"></rect>
<text font-size="15" x="128" y="125" stroke-width="2" fill="rgba(68,68,68,1)" stroke="none">春节
元宵节
清明节
端午节
中秋节</text>
<rect x="123" y="133" height="16" width="227" stroke-width="1" fill="rgba(255,193,7,1)" stroke="none"></rect>
<rect x="123" y="133" height="16" width="227" stroke-width="1" fill="none" stroke="rgba(68,68,68,0.8)"></rect>
<text font-size="10" x="219" y="145" stroke-width="1" fill="rgba(68,68,68,1)" stroke="none">主要节日</text>
<path stroke-width="1" fill="none" stroke="rgba(102,102,102,0.8)" d="M207 205 L207 174 Q207 169 212 169 L238 169 "></path>
<path stroke-width="1" fill="none" stroke="rgba(102,102,102,0.8)" d="M207 205 L207 207 Q207 202 212 202 L238 202 "></path>
<path stroke-width="1" fill="none" stroke="rgba(102,102,102,0.8)" d="M207 205 L207 230 Q207 235 212 235 L238 235 "></path>
<rect rx="5" ry="5" x="107" y="191" height="28" width="92" stroke-width="1" fill="rgba(255,255,255,1)" stroke="none"></rect>
<rect rx="5" ry="5" x="107" y="191" height="28" width="92" stroke-width="1" fill="none" stroke="rgba(68,68,68,0.8)"></rect>
<text font-size="15" x="120" y="212" stroke-width="2" fill="rgba(68,68,68,1)" stroke="none">文化思想</text>
<ellipse cx="203" cy="205" rx="3" ry="3" stroke-width="2" fill="rgba(255,255,255,1)" stroke="none"></ellipse>
<ellipse cx="203" cy="205" rx="3" ry="3" stroke-width="1" fill="none" stroke="rgba(68,68,68,1)"></ellipse>
<rect rx="5" ry="5" x="238" y="155" height="28" width="92" stroke-width="1" fill="rgba(255,255,255,1)" stroke="none"></rect>
<rect rx="5" ry="5" x="238" y="155" height="28" width="92" stroke-width="1" fill="none" stroke="rgba(68,68,68,0.8)"></rect>
<text font-size="15" x="251" y="176" stroke-width="2" fill="rgba(68,68,68,1)" stroke="none">诸子百家</text>
<rect rx="5" ry="5" x="238" y="188" height="28" width="92" stroke-width="1" fill="rgba(255,255,255,1)" stroke="none"></rect>
<rect rx="5" ry="5" x="238" y="188" height="28" width="92" stroke-width="1" fill="none" stroke="rgba(68,68,68,0.8)"></rect>
<text font-size="15" x="251" y="209" stroke-width="2" fill="rgba(68,68,68,1)" stroke="none">汉服文化</text>
<rect rx="5" ry="5" x="238" y="221" height="28" width="92" stroke-width="1" fill="rgba(255,255,255,1)" stroke="none"></rect>
<rect rx="5" ry="5" x="238" y="221" height="28" width="92" stroke-width="1" fill="none" stroke="rgba(68,68,68,0.8)"></rect>
<text font-size="15" x="251" y="242" stroke-width="2" fill="rgba(68,68,68,1)" stroke="none">唐诗宋词</text></g>
</svg>